<?xml version="1.0" encoding="iso-8859-1"?>
<!-- Uploaded to: SVG Repo, www.svgrepo.com, Generator: SVG Repo Mixer Tools -->
<svg version="1.1" id="Layer_1" xmlns="http://www.w3.org/2000/svg" xmlns:xlink="http://www.w3.org/1999/xlink" 
	 viewBox="0 0 512 512" xml:space="preserve">
<rect y="9.918" width="512" height="21.36"/>
<polygon points="384.361,502.082 255.961,393.521 127.64,502.082 107,477.681 255.961,351.601 405.001,477.681 "/>
<rect x="159.999" y="452.566" width="192.001" height="10.64"/>
<rect x="21.36" y="30.72" style="fill:#EFEFEF;" width="469.361" height="341.837"/>
<rect y="372.566" width="512" height="21.36"/>
<circle style="fill:#999999;" cx="185.715" cy="90.767" r="26.632"/>
<path d="M184.44,179.265l-25.736-55.76c0,0-26.968,0.336-26.968,25.192v30.576L184.44,179.265z"/>
<path d="M186.944,179.265l25.736-55.76c0,0,26.968,0.336,26.968,25.192v30.576L186.944,179.265z"/>
<polygon style="fill:#E21B1B;" points="185.712,123.505 167.184,123.505 185.712,164.513 204.248,123.505 "/>
<circle style="fill:#999999;" cx="323.018" cy="247.036" r="26.632"/>
<path d="M321.792,335.529l-25.736-55.76c0,0-26.968,0.336-26.968,25.192v30.576L321.792,335.529z"/>
<path d="M324.288,335.529l25.736-55.76c0,0,26.968,0.336,26.968,25.192v30.576L324.288,335.529z"/>
<polygon style="fill:#E21B1B;" points="323.016,279.769 304.488,279.769 323.016,320.769 341.552,279.769 "/>
<polygon style="fill:#999999;" points="254.48,311.649 182.944,311.649 182.944,194.113 190.944,194.113 190.944,303.65 
	254.48,303.65 "/>
</svg>